<svg xmlns="http://www.w3.org/2000/svg" viewBox="0 0 64 64">
  <defs>
    <radialGradient id="g" cx="50%" cy="50%" r="50%">
      <stop offset="0%" stop-color="#B39DDB" stop-opacity=".25"/>
      <stop offset="100%" stop-color="#9575CD" stop-opacity="0"/>
    </radialGradient>
  </defs>
  <!-- subtle glow backdrop -->
  <circle cx="32" cy="32" r="30" fill="url(#g)"/>
  <!-- main 4-point shimmer star -->
  <path d="M32 4 C33 20, 44 31, 60 32 C44 33, 33 44, 32 60 C31 44, 20 33, 4 32 C20 31, 31 20, 32 4Z"
        fill="#9575CD"/>
  <!-- small accent sparkle top-right -->
  <path d="M48 6 C48.4 10, 50 11.6, 54 12 C50 12.4, 48.4 14, 48 18 C47.6 14, 46 12.4, 42 12 C46 11.6, 47.6 10, 48 6Z"
        fill="#B39DDB" opacity=".8"/>
  <!-- tiny sparkle bottom-left -->
  <path d="M14 46 C14.3 48.5, 15.5 49.7, 18 50 C15.5 50.3, 14.3 51.5, 14 54 C13.7 51.5, 12.5 50.3, 10 50 C12.5 49.7, 13.7 48.5, 14 46Z"
        fill="#B39DDB" opacity=".6"/>
</svg>
